# xmcd
#
# Track frame offsets: 
#        150
#        21457
#        32996
#        50690
#        70433
#        86739
#        105388
#        116167
#        135383
#        148858
#
# Disc length: 2179 seconds
#
# Revision: 0
# Processed by: cddbd v1.5.1PL0 Copyright (c) Steve Scherf et al.
# Submitted via: ExactAudioCopy v0.95a5
#
DISCID=9608810a
DTITLE=Ian Matthews - Valley Hi
DYEAR=1973
DGENRE=Country/Rock
TTITLE0=Keep On Sailing
TTITLE1=Old Man At The Mill
TTITLE2=Shady Lies
TTITLE3=These Days
TTITLE4=Leaving Alone
TTITLE5=7 Bridges Road
TTITLE6=Save Your Sorrows
TTITLE7=What Are You Waiting For
TTITLE8=Propinquity
TTITLE9=Blue Blue Day
EXTD=
EXTT0=
EXTT1=
EXTT2=
EXTT3=
EXTT4=
EXTT5=
EXTT6=
EXTT7=
EXTT8=
EXTT9=
PLAYORDER=
